Coordinates
version=1
nRows=9
nColumns=24
inDegrees=yes

Units are S.I. units (second, meters, Newtons, ...)
Angles are in degrees.

endheader
time	pelvis_tilt	pelvis_list	pelvis_rotation	pelvis_tx	pelvis_ty	pelvis_tz	hip_flexion_r	hip_adduction_r	hip_rotation_r	knee_angle_r	ankle_angle_r	subtalar_angle_r	mtp_angle_r	hip_flexion_l	hip_adduction_l	hip_rotation_l	knee_angle_l	ankle_angle_l	subtalar_angle_l	mtp_angle_l	lumbar_extension	lumbar_bending	lumbar_rotation
      1.26616667	      1.85542691	     -6.56203191	     -3.96113651	      0.02857949	      1.04629679	      0.30954217	    -22.02191990	     10.71887337	      0.26627987	     -7.15593752	      0.57910317	     -5.58982064	      5.85711751	     20.36799249	     -2.89129355	     -9.05145543	      3.33034139	     10.02613808	      5.11363145	      2.06554059	      1.24477328	     11.66188289	      4.13635375
      1.27033333	      2.01169155	     -6.44548727	     -3.92875156	      0.03479144	      1.04633384	      0.30927657	    -22.23447990	     10.51840504	     -0.01302922	     -7.63647112	      0.11169007	     -5.39672515	      6.28247824	     20.00172470	     -2.70464625	     -8.20333825	      3.14885933	      9.46935628	      3.28395568	      2.04637479	      1.07824576	     11.50586587	      4.15647948
      1.27450000	      2.02517845	     -6.33997368	     -4.08077731	      0.04112400	      1.04633396	      0.30947073	    -22.28223916	     10.29665332	     -0.07788223	     -8.19984196	     -0.26127260	     -5.28617590	      6.38039886	     19.81642087	     -2.61317721	     -8.24616463	      2.85197298	      9.36165661	      3.08425466	      2.04748868	      1.15348918	     11.37404366	      4.16772873
      1.27866667	      2.05395685	     -6.31158074	     -4.15628516	      0.04721899	      1.04631209	      0.30964311	    -22.32327094	     10.19152821	     -0.07748480	     -8.80398361	     -0.42226309	     -5.26537781	      6.40693143	     19.64332886	     -2.59166400	     -8.17118589	      2.53312041	      9.26882323	      3.02626635	      2.04850987	      1.23881193	     11.27879766	      4.18692408
      1.28283333	      2.05531352	     -6.12402742	     -4.34879649	      0.05385739	      1.04641195	      0.30981373	    -22.32661574	      9.85357450	     -0.25075256	     -9.39651345	     -1.17436721	     -5.05379911	      6.53206341	     19.39481141	     -2.41025506	     -8.29531535	      2.37049934	      8.77856322	      2.49787943	      2.05172544	      1.26704652	     11.04518693	      4.24156150
      1.28700000	      2.19836894	     -6.02365970	     -4.43991667	      0.06014233	      1.04664354	      0.30991333	    -22.45955146	      9.63479574	     -0.35311067	    -10.00547426	     -1.72988246	     -4.83765095	      6.78553610	     19.01504071	     -2.29681976	     -8.13575712	      2.21712917	      8.13283841	      1.65858287	      2.07753230	      1.27503542	     10.82518268	      4.35201572
      1.29116667	      2.21491308	     -5.98627368	     -4.55388298	      0.06629865	      1.04674257	      0.31008907	    -22.41449072	      9.49496362	     -0.40062466	    -10.74138043	     -1.86499275	     -4.84676164	      6.81497140	     18.78796565	     -2.27220315	     -8.03774044	      2.01876619	      8.03446066	      1.61507770	      2.08248231	      1.32347419	     10.75934239	      4.36330242
      1.29533333	      2.19352795	     -5.77769039	     -4.78738513	      0.07304960	      1.04693351	      0.31023976	    -22.31963634	      9.10446942	     -0.63626516	    -11.46443874	     -2.58509410	     -4.66204661	      6.94138469	     18.51112871	     -2.06816469	     -8.23483380	      1.96462929	      7.39697285	      1.10749261	      2.09631686	      1.29904377	     10.58207743	      4.40987890
      1.29950000	      2.40896407	     -5.68536359	     -4.86860005	      0.07924408	      1.04735807	      0.31022695	    -22.45807753	      8.86674673	     -0.72278552	    -12.18471489	     -3.12052793	     -4.37379515	      7.54512459	     17.97643401	     -1.94623075	     -7.68187975	      1.99741443	      6.34682246	     -0.50454105	      2.22629714	      1.22614286	     10.35613212	      4.65211131
